<svg xmlns="http://www.w3.org/2000/svg" width="416" height="480" viewBox="0 0 416 480">
  <metadata><?xpacket begin="﻿" id="W5M0MpCehiHzreSzNTczkc9d"?>
<x:xmpmeta xmlns:x="adobe:ns:meta/" x:xmptk="Adobe XMP Core 5.6-c138 79.159824, 2016/09/14-01:09:01        ">
   <rdf:RDF xmlns:rdf="http://www.w3.org/1999/02/22-rdf-syntax-ns#">
      <rdf:Description rdf:about=""/>
   </rdf:RDF>
</x:xmpmeta>
                                                                                                    
                                                                                                    
                                                                                                    
                                                                                                    
                                                                                                    
                                                                                                    
                                                                                                    
                                                                                                    
                                                                                                    
                                                                                                    
                                                                                                    
                                                                                                    
                                                                                                    
                                                                                                    
                                                                                                    
                                                                                                    
                                                                                                    
                                                                                                    
                                                                                                    
                                                                                                    
                           
<?xpacket end="w"?></metadata>
<defs>
    <style>
      .cls-1 {
        fill-rule: evenodd;
      }
    </style>
  </defs>
  <path id="Forma_1" data-name="Forma 1" class="cls-1" d="M208,90.232A111.934,111.934,0,0,0,96,201.847a123.927,123.927,0,0,0,5.888,35.264,283.363,283.363,0,0,0,18.68,35.152C136.944,300.8,161.68,343.951,161.68,360a8,8,0,0,0,8,8h76.64a8,8,0,0,0,8-8c0-16.047,24.736-59.2,41.112-87.735a283.363,283.363,0,0,0,18.68-35.152A123.921,123.921,0,0,0,320,201.847,111.934,111.934,0,0,0,208,90.232ZM298.944,232a333.558,333.558,0,0,1-17.392,32.272C260.92,300.279,243.384,332,239.24,352H176.8c-4.144-20-21.68-51.719-42.312-87.695A333.527,333.527,0,0,1,117.056,232,109.5,109.5,0,0,1,112,201.847a96,96,0,0,1,192,0A109.5,109.5,0,0,1,298.944,232ZM246.936,460.63A8.006,8.006,0,0,0,236,457.694L225.064,464H190.936L180,457.694a8.007,8.007,0,1,0-8,13.872l12.8,7.368a8.007,8.007,0,0,0,4,1.064h38.4a8.007,8.007,0,0,0,4-1.064l12.8-7.368A8.006,8.006,0,0,0,246.936,460.63ZM247.96,384.8a8,8,0,0,0-8.76-7.16h0l-64,6.4A8,8,0,0,0,176,400a5.414,5.414,0,0,0,.8-0.04l64-6.4A8,8,0,0,0,247.96,384.8Zm0,24a8,8,0,0,0-8.76-7.16h0l-64,6.4A8,8,0,0,0,176,424a5.414,5.414,0,0,0,.8-0.04l64-6.4A8,8,0,0,0,247.96,408.8Zm0,24a8,8,0,0,0-8.76-7.16h0l-64,6.4A8,8,0,0,0,176,448a5.414,5.414,0,0,0,.8-0.04l64-6.4A8,8,0,0,0,247.96,432.8ZM208,0a8,8,0,0,0-8,8V64a8,8,0,1,0,16,0V8A8,8,0,0,0,208,0ZM355.276,60.92a8,8,0,0,0-11.312-.2c-0.067.064-.132,0.13-0.2,0.2l-39.6,39.6a8,8,0,0,0,11.116,11.508c0.067-.064.132-0.131,0.2-0.2l39.6-39.6A8,8,0,0,0,355.276,60.92ZM408,200H352a8,8,0,0,0,0,16h56A8,8,0,0,0,408,200ZM355.08,343.767l-39.6-39.6a8,8,0,0,0-11.312,11.312l39.6,39.6A8,8,0,0,0,355.08,343.767Zm-243.444-39.6a8,8,0,0,0-11.116,0l-39.6,39.6a8,8,0,1,0,11.312,11.311l39.6-39.6A8,8,0,0,0,111.636,304.167ZM64,200H8a8,8,0,0,0,0,16H64A8,8,0,1,0,64,200Zm47.832-99.479-39.6-39.6A8,8,0,1,0,60.723,72.035c0.064,0.067.13,0.132,0.2,0.2l39.6,39.6A8,8,0,0,0,111.832,100.52ZM258.345,216.357a8,8,0,0,0-4.873.058L208,231.567l-45.472-15.152a8,8,0,0,0-10.176,9.936l32,104a8,8,0,1,0,15.3-4.7L172.216,236.5l33.256,11.08a7.925,7.925,0,0,0,5.056,0l33.256-11.08-27.432,89.144a8,8,0,0,0,15.3,4.7l32-104A8,8,0,0,0,258.345,216.357Z"/>
</svg>
